<!-- Generated by IcoMoon.io -->
<svg version="1.1" xmlns="http://www.w3.org/2000/svg" width="480" height="448" viewBox="0 0 480 448">
<g id="icomoon-ignore">
</g>
<path d="M96 292v24c0 2.25-1.75 4-4 4h-24c-2.25 0-4-1.75-4-4v-24c0-2.25 1.75-4 4-4h24c2.25 0 4 1.75 4 4zM128 228v24c0 2.25-1.75 4-4 4h-56c-2.25 0-4-1.75-4-4v-24c0-2.25 1.75-4 4-4h56c2.25 0 4 1.75 4 4zM96 164v24c0 2.25-1.75 4-4 4h-24c-2.25 0-4-1.75-4-4v-24c0-2.25 1.75-4 4-4h24c2.25 0 4 1.75 4 4zM352 292v24c0 2.25-1.75 4-4 4h-216c-2.25 0-4-1.75-4-4v-24c0-2.25 1.75-4 4-4h216c2.25 0 4 1.75 4 4zM192 228v24c0 2.25-1.75 4-4 4h-24c-2.25 0-4-1.75-4-4v-24c0-2.25 1.75-4 4-4h24c2.25 0 4 1.75 4 4zM160 164v24c0 2.25-1.75 4-4 4h-24c-2.25 0-4-1.75-4-4v-24c0-2.25 1.75-4 4-4h24c2.25 0 4 1.75 4 4zM256 228v24c0 2.25-1.75 4-4 4h-24c-2.25 0-4-1.75-4-4v-24c0-2.25 1.75-4 4-4h24c2.25 0 4 1.75 4 4zM224 164v24c0 2.25-1.75 4-4 4h-24c-2.25 0-4-1.75-4-4v-24c0-2.25 1.75-4 4-4h24c2.25 0 4 1.75 4 4zM320 228v24c0 2.25-1.75 4-4 4h-24c-2.25 0-4-1.75-4-4v-24c0-2.25 1.75-4 4-4h24c2.25 0 4 1.75 4 4zM416 292v24c0 2.25-1.75 4-4 4h-24c-2.25 0-4-1.75-4-4v-24c0-2.25 1.75-4 4-4h24c2.25 0 4 1.75 4 4zM288 164v24c0 2.25-1.75 4-4 4h-24c-2.25 0-4-1.75-4-4v-24c0-2.25 1.75-4 4-4h24c2.25 0 4 1.75 4 4zM352 164v24c0 2.25-1.75 4-4 4h-24c-2.25 0-4-1.75-4-4v-24c0-2.25 1.75-4 4-4h24c2.25 0 4 1.75 4 4zM416 164v88c0 2.25-1.75 4-4 4h-56c-2.25 0-4-1.75-4-4v-24c0-2.25 1.75-4 4-4h28v-60c0-2.25 1.75-4 4-4h24c2.25 0 4 1.75 4 4zM448 352v-224h-416v224h416zM480 128v224c0 17.75-14.25 32-32 32h-416c-17.75 0-32-14.25-32-32v-224c0-17.75 14.25-32 32-32h416c17.75 0 32 14.25 32 32z"></path>
</svg>
