<!-- Generated by IcoMoon.io -->
<svg version="1.1" xmlns="http://www.w3.org/2000/svg" width="1024" height="1024" viewBox="0 0 1024 1024">
<g id="icomoon-ignore">
</g>
<path fill="#000" d="M511.088 0c143.808 0 265.12 49.36 363.872 148.112 99.328 99.36 149.040 220.656 149.040 363.888 0 143.856-48.784 263.616-146.32 359.296-103.616 101.808-225.808 152.704-366.592 152.704-138.384 0-258.448-50.304-360.224-150.88-100.56-100.576-150.864-220.928-150.864-361.12 0-140.176 50.304-261.472 150.864-363.872 98.752-98.768 218.8-148.128 360.224-148.128zM512.912 92.352c-116.416 0-214.848 40.848-295.312 122.512-83.52 85.344-125.264 184.4-125.264 297.152 0 113.376 41.44 211.52 124.32 294.368 82.896 82.912 181.632 124.336 296.224 124.336 113.968 0 213.344-41.712 298.064-125.248 80.464-77.408 120.688-175.232 120.688-293.488 0-116.416-40.848-215.44-122.496-297.136-81.664-81.664-180.416-122.496-296.224-122.496zM650.064 384.912v209.36h-58.496v248.672h-159.104v-248.656h-58.496v-209.376c0-9.152 3.2-16.912 9.584-23.312 6.416-6.384 14.192-9.6 23.312-9.6h210.304c8.528 0 16.16 3.2 22.848 9.6 6.672 6.4 10.048 14.176 10.048 23.312zM440.672 253.264c0-48.128 23.76-72.224 71.328-72.224s71.312 24.064 71.312 72.224c0 47.536-23.776 71.312-71.312 71.312s-71.328-23.776-71.328-71.312z"></path>
</svg>
