<!-- Generated by IcoMoon.io -->
<svg version="1.1" xmlns="http://www.w3.org/2000/svg" width="768" height="768" viewBox="0 0 768 768">
<g id="icomoon-ignore">
</g>
<path d="M192 160h384c8.832 0 16.8 3.552 22.624 9.376s9.376 13.792 9.376 22.624v384c0 8.832-3.552 16.8-9.376 22.624s-13.792 9.376-22.624 9.376h-384c-8.832 0-16.8-3.552-22.624-9.376s-9.376-13.792-9.376-22.624v-384c0-8.832 3.552-16.8 9.376-22.624s13.792-9.376 22.624-9.376zM288 256c-17.664 0-32 14.336-32 32v192c0 17.664 14.336 32 32 32h192c17.664 0 32-14.336 32-32v-192c0-17.664-14.336-32-32-32zM320 320h128v128h-128zM32 480h64v96c0 26.496 10.784 50.56 28.128 67.872s41.376 28.128 67.872 28.128h64v64c0 17.664 14.336 32 32 32s32-14.336 32-32v-64h128v64c0 17.664 14.336 32 32 32s32-14.336 32-32v-64h64c26.496 0 50.56-10.784 67.872-28.128s28.128-41.376 28.128-67.872v-96h64c17.664 0 32-14.336 32-32s-14.336-32-32-32h-64v-96h64c17.664 0 32-14.336 32-32s-14.336-32-32-32h-64v-64c0-26.496-10.784-50.56-28.128-67.872s-41.376-28.128-67.872-28.128h-64v-64c0-17.664-14.336-32-32-32s-32 14.336-32 32v64h-128v-64c0-17.664-14.336-32-32-32s-32 14.336-32 32v64h-64c-26.496 0-50.56 10.784-67.872 28.128s-28.128 41.376-28.128 67.872v64h-64c-17.664 0-32 14.336-32 32s14.336 32 32 32h64v96h-64c-17.664 0-32 14.336-32 32s14.336 32 32 32z"></path>
</svg>
