<!-- Generated by IcoMoon.io -->
<svg version="1.1" xmlns="http://www.w3.org/2000/svg" width="768" height="768" viewBox="0 0 768 768">
<g id="icomoon-ignore">
</g>
<path d="M608 704c26.496 0 50.56-10.784 67.872-28.128s28.128-41.376 28.128-67.872v-352c0-8.192-3.136-16.384-9.376-22.624l-160-160c-5.792-5.792-13.792-9.376-22.624-9.376h-352c-26.496 0-50.56 10.784-67.872 28.128s-28.128 41.376-28.128 67.872v448c0 26.496 10.784 50.56 28.128 67.872s41.376 28.128 67.872 28.128zM256 640v-192h256v192zM192 128v128c0 17.664 14.336 32 32 32h256c17.664 0 32-14.336 32-32s-14.336-32-32-32h-224v-96h242.752l141.248 141.248v338.752c0 8.832-3.552 16.8-9.376 22.624s-13.792 9.376-22.624 9.376h-32v-224c0-17.664-14.336-32-32-32h-320c-17.664 0-32 14.336-32 32v224h-32c-8.832 0-16.8-3.552-22.624-9.376s-9.376-13.792-9.376-22.624v-448c0-8.832 3.552-16.8 9.376-22.624s13.792-9.376 22.624-9.376z"></path>
</svg>
