<!-- Generated by IcoMoon.io -->
<svg version="1.1" xmlns="http://www.w3.org/2000/svg" width="1024" height="1024" viewBox="0 0 1024 1024">
<g id="icomoon-ignore">
</g>
<path fill="#000" d="M867.425 180.386c-66.285-31.013-137.161-53.552-211.259-66.386-9.1 16.453-19.732 38.582-27.062 56.186-78.768-11.846-156.813-11.846-234.132 0-7.329-17.604-18.202-39.733-27.383-56.186-74.178 12.834-145.135 35.456-211.421 66.551-133.698 202.035-169.942 399.053-151.82 593.272 88.676 66.221 174.613 106.448 259.1 132.771 20.86-28.71 39.465-59.229 55.492-91.393-30.525-11.599-59.761-25.912-87.386-42.529 7.329-5.429 14.497-11.106 21.423-16.947 168.491 78.808 351.561 78.808 518.040 0 7.007 5.841 14.175 11.517 21.423 16.947-27.706 16.698-57.022 31.012-87.547 42.612 16.027 32.081 34.552 62.683 55.492 91.392 84.568-26.324 170.586-66.549 259.261-132.853 21.263-225.15-36.323-420.358-152.222-593.436zM341.896 654.38c-50.579 0-92.059-47.219-92.059-104.72s40.593-104.801 92.059-104.801c51.467 0 92.944 47.218 92.059 104.801 0.080 57.501-40.592 104.72-92.059 104.72zM682.101 654.38c-50.579 0-92.059-47.219-92.059-104.72s40.592-104.801 92.059-104.801c51.465 0 92.944 47.218 92.059 104.801 0 57.501-40.593 104.72-92.059 104.72z"></path>
</svg>
