<!-- Generated by IcoMoon.io -->
<svg version="1.1" xmlns="http://www.w3.org/2000/svg" width="1024" height="1024" viewBox="0 0 1024 1024">
<g id="icomoon-ignore">
</g>
<path fill="#000" d="M512 217.28c-169.040 0-211.552 159.504-211.552 294.72 0 135.232 42.496 294.72 211.552 294.72 169.024 0 211.536-159.488 211.536-294.72 0-135.216-42.512-294.72-211.536-294.72zM512 328.416c6.864 0 13.12 1.056 19.008 2.512 12.176 10.496 18.128 24.976 6.448 45.168l-112.576 206.88c-3.456-26.176-3.952-51.84-3.952-70.992 0-59.552 4.128-183.568 91.072-183.568zM596.256 423.792c5.968 31.744 6.816 64.896 6.816 88.208 0 59.568-4.128 183.6-91.040 183.6-6.848 0-13.152-0.72-19.008-2.176-1.12-0.336-2.144-0.688-3.232-1.072-1.792-0.512-3.68-1.088-5.376-1.76-19.36-8.24-31.552-23.136-13.984-49.488l125.824-217.312z"></path>
<path fill="#000" d="M510.928 0c-142.032 0-261.744 49.44-359.264 148.8-49.392 49.392-87.088 105.712-113.312 168.512-25.6 62.192-38.352 127.024-38.352 194.688 0 68.288 12.752 133.12 38.352 194.688 25.6 61.6 62.736 116.992 111.504 166.336 49.36 48.784 104.784 86.384 166.368 112.592 62.176 25.632 127.024 38.368 194.704 38.368 67.664 0 133.44-13.216 196.848-39.44 63.392-26.224 119.936-63.904 169.936-113.296 48.176-46.928 84.624-100.752 108.992-161.696 24.976-61.552 37.296-127.424 37.296-197.552 0-69.488-12.32-135.264-37.28-196.848-24.992-62.16-61.568-117.12-109.712-165.28-100.608-99.968-222.848-149.872-366.080-149.872zM513.072 92.144c115.808 0 214.592 41.056 296.864 123.344 39.632 39.632 70 84.96 90.72 135.536 20.736 50.592 31.184 104.288 31.184 160.976 0 117.664-40.256 215.264-120.096 293.28-41.472 40.256-88.032 71.152-139.84 92.496-51.2 21.344-103.968 31.904-158.832 31.904-55.488 0-108.608-10.448-159.184-31.168-50.608-21.344-96.016-51.808-136.256-91.456-40.24-40.224-71.28-85.648-93.216-136.256-21.328-51.184-32.272-103.968-32.272-158.832 0-55.472 10.944-108.592 32.272-159.184 21.936-51.2 52.992-97.184 93.216-138.048 79.84-81.648 178.4-122.592 295.44-122.592z"></path>
</svg>
