<!-- Generated by IcoMoon.io -->
<svg version="1.1" xmlns="http://www.w3.org/2000/svg" width="768" height="768" viewBox="0 0 768 768">
<g id="icomoon-ignore">
</g>
<path d="M3.392 369.696c-4.352 8.768-4.672 19.296 0 28.608 0 0 12.672 25.248 35.84 58.976 14.432 20.992 33.216 45.824 56.224 70.976 28.608 31.328 64.128 63.584 106.208 89.6 51.040 31.552 112.192 54.144 182.336 54.144s131.296-22.592 182.336-54.144c42.080-26.016 77.6-58.272 106.208-89.6 22.976-25.152 41.792-49.984 56.224-70.976 23.168-33.728 35.84-58.976 35.84-58.976 4.352-8.768 4.672-19.296 0-28.608 0 0-12.672-25.248-35.84-58.976-14.432-20.992-33.216-45.824-56.224-70.976-28.608-31.328-64.128-63.584-106.208-89.6-51.040-31.552-112.192-54.144-182.336-54.144s-131.296 22.592-182.336 54.144c-42.080 26.016-77.6 58.272-106.208 89.6-23.008 25.152-41.792 49.952-56.224 70.976-23.168 33.728-35.84 58.976-35.84 58.976zM68.48 384c5.216-8.992 13.024-21.792 23.488-37.056 13.12-19.072 30.080-41.472 50.72-64.032 25.76-28.192 56.8-56.192 92.608-78.336 43.2-26.688 92.832-44.576 148.704-44.576s105.504 17.888 148.672 44.576c35.808 22.144 66.848 50.144 92.608 78.336 20.608 22.56 37.6 44.96 50.72 64.032 10.496 15.264 18.304 28.032 23.488 37.056-5.216 8.992-13.024 21.792-23.488 37.056-13.12 19.072-30.080 41.472-50.72 64.032-25.76 28.192-56.8 56.192-92.608 78.336-43.168 26.688-92.8 44.576-148.672 44.576s-105.504-17.888-148.672-44.576c-35.808-22.144-66.848-50.144-92.608-78.336-20.608-22.56-37.6-44.96-50.72-64.032-10.496-15.264-18.304-28.064-23.52-37.056zM512 384c0-35.328-14.368-67.392-37.504-90.496s-55.168-37.504-90.496-37.504-67.392 14.368-90.496 37.504-37.504 55.168-37.504 90.496 14.368 67.392 37.504 90.496 55.168 37.504 90.496 37.504 67.392-14.368 90.496-37.504 37.504-55.168 37.504-90.496zM448 384c0 17.696-7.136 33.632-18.752 45.248s-27.552 18.752-45.248 18.752-33.632-7.136-45.248-18.752-18.752-27.552-18.752-45.248 7.136-33.632 18.752-45.248 27.552-18.752 45.248-18.752 33.632 7.136 45.248 18.752 18.752 27.552 18.752 45.248z"></path>
</svg>
