<!-- Generated by IcoMoon.io -->
<svg version="1.1" xmlns="http://www.w3.org/2000/svg" width="768" height="768" viewBox="0 0 768 768">
<g id="icomoon-ignore">
</g>
<path d="M625.504 469.344c-23.552 66.656-71.84 117.44-131.008 145.696s-128.992 33.952-195.648 10.4-117.44-71.84-145.696-131.008-33.952-128.992-10.4-195.648 71.84-117.44 131.008-145.696 128.992-33.952 195.648-10.4c38.016 13.44 70.688 34.816 95.584 60.224l90.368 85.088h-111.36c-17.664 0-32 14.336-32 32s14.336 32 32 32h191.904c0.128 0 0.288 0 0.416 0 4.384-0.032 8.544-0.96 12.352-2.624 3.808-1.632 7.328-4.032 10.368-7.2 0.384-0.384 0.736-0.8 1.088-1.216 2.432-2.784 4.288-5.888 5.6-9.184 1.312-3.264 2.080-6.816 2.208-10.496 0.064-0.448 0.064-0.896 0.064-1.344v-191.936c0-17.664-14.336-32-32-32s-32 14.336-32 32v117.92l-93.312-87.84c-31.776-32.384-72.768-59.072-119.936-75.712-83.328-29.472-170.752-22.336-244.608 12.96s-134.304 98.816-163.744 182.144-22.272 170.72 12.992 244.576 98.816 134.304 182.144 163.744 170.72 22.304 244.576-12.992 134.304-98.816 163.744-182.144c5.888-16.672-2.848-34.944-19.52-40.832s-34.944 2.848-40.832 19.52z"></path>
</svg>
